<svg width="72" height="18" viewBox="0 0 72 18" fill="none" xmlns="http://www.w3.org/2000/svg">
<g id="Assets">
<g id="Group">
<g id="&#60;Group&#62;">
<path id="&#60;Path&#62;" d="M10.756 8.52337C10.7637 7.92371 10.923 7.33575 11.219 6.81419C11.5151 6.29264 11.9382 5.85443 12.4491 5.54035C12.1245 5.07684 11.6964 4.69539 11.1986 4.42629C10.7009 4.1572 10.1472 4.00787 9.58165 3.99018C8.37522 3.86355 7.20563 4.71209 6.59085 4.71209C5.96417 4.71209 5.01762 4.00275 3.99835 4.02372C3.33905 4.04502 2.69652 4.23674 2.13334 4.5802C1.57017 4.92366 1.10557 5.40714 0.784812 5.98354C-0.604656 8.38919 0.431762 11.9247 1.76276 13.8692C2.42868 14.8214 3.20696 15.885 4.22531 15.8473C5.22183 15.806 5.59402 15.2119 6.79691 15.2119C7.98863 15.2119 8.33781 15.8473 9.37683 15.8233C10.4461 15.806 11.1199 14.8669 11.7624 13.9057C12.2409 13.2272 12.6091 12.4774 12.8533 11.6839C12.2321 11.4212 11.7019 10.9813 11.329 10.4193C10.956 9.85728 10.7567 9.19789 10.756 8.52337Z" fill="white"/>
<path id="&#60;Path&#62;_2" d="M8.7934 2.71142C9.37644 2.01151 9.66368 1.11189 9.59412 0.203613C8.70337 0.297169 7.88057 0.722889 7.28966 1.39595C7.00074 1.72475 6.77946 2.10728 6.63847 2.52166C6.49748 2.93603 6.43954 3.37413 6.46797 3.81091C6.9135 3.8155 7.35427 3.71893 7.75707 3.52848C8.15988 3.33803 8.51422 3.05867 8.7934 2.71142Z" fill="white"/>
</g>
</g>
<g id="Group_2">
<path id="Vector" d="M23.3528 13.4368H19.9521L19.1355 15.8483H17.6951L20.9161 6.92664H22.4127L25.6337 15.8483H24.1688L23.3528 13.4368ZM20.3043 12.3241H22.9999L21.6711 8.41054H21.6339L20.3043 12.3241Z" fill="white"/>
<path id="Vector_2" d="M32.5903 12.5964C32.5903 14.6178 31.5084 15.9164 29.8758 15.9164C29.4622 15.9381 29.0509 15.8428 28.6889 15.6415C28.327 15.4403 28.029 15.1411 27.8292 14.7784H27.7983V18.0002H26.4631V9.34379H27.7555V10.4257H27.7801C27.9891 10.0647 28.2921 9.7671 28.6568 9.56461C29.0215 9.36212 29.4343 9.26229 29.8512 9.27574C31.502 9.27574 32.5903 10.5807 32.5903 12.5964ZM31.2179 12.5964C31.2179 11.2795 30.5374 10.4137 29.499 10.4137C28.4789 10.4137 27.7927 11.2978 27.7927 12.5964C27.7927 13.907 28.4789 14.7847 29.499 14.7847C30.5374 14.7847 31.2179 13.9253 31.2179 12.5964Z" fill="white"/>
<path id="Vector_3" d="M39.7494 12.5964C39.7494 14.6178 38.6676 15.9164 37.0349 15.9164C36.6214 15.938 36.2101 15.8428 35.8481 15.6415C35.4862 15.4403 35.1882 15.1411 34.9884 14.7784H34.9575V18.0002H33.6223V9.34379H34.9147V10.4257H34.9392C35.1483 10.0647 35.4512 9.7671 35.8159 9.56461C36.1807 9.36212 36.5934 9.26229 37.0104 9.27574C38.6613 9.27574 39.7494 10.5807 39.7494 12.5964ZM38.3771 12.5964C38.3771 11.2795 37.6965 10.4137 36.6582 10.4137C35.638 10.4137 34.9519 11.2978 34.9519 12.5964C34.9519 13.907 35.638 14.7847 36.6582 14.7847C37.6966 14.7847 38.3771 13.9253 38.3771 12.5964H38.3771Z" fill="white"/>
<path id="Vector_4" d="M44.481 13.3624C44.5799 14.2471 45.4394 14.828 46.6139 14.828C47.7393 14.828 48.5489 14.2471 48.5489 13.4494C48.5489 12.7569 48.0606 12.3423 46.9043 12.0581L45.7481 11.7796C44.1099 11.3839 43.3493 10.6177 43.3493 9.37447C43.3493 7.83515 44.6908 6.77783 46.5956 6.77783C48.4808 6.77783 49.7732 7.83515 49.8167 9.37447H48.4689C48.3882 8.48413 47.6522 7.94671 46.5767 7.94671C45.5011 7.94671 44.7651 8.49045 44.7651 9.28186C44.7651 9.9126 45.2352 10.2838 46.3851 10.5679L47.3681 10.8092C49.1986 11.2421 49.9591 11.9774 49.9591 13.2824C49.9591 14.9515 48.6296 15.9969 46.5149 15.9969C44.5364 15.9969 43.2006 14.9761 43.1143 13.3624L44.481 13.3624Z" fill="white"/>
<path id="Vector_5" d="M52.8407 7.80444V9.34376H54.0776V10.4011H52.8407V13.987C52.8407 14.5441 53.0884 14.8036 53.6321 14.8036C53.7789 14.8011 53.9255 14.7908 54.0713 14.7728V15.8238C53.8268 15.8694 53.5784 15.8901 53.3297 15.8855C52.0128 15.8855 51.4992 15.3909 51.4992 14.1294V10.4011H50.5535V9.34376H51.4992V7.80444H52.8407Z" fill="white"/>
<path id="Vector_6" d="M54.7939 12.5963C54.7939 10.5497 55.9993 9.26367 57.8789 9.26367C59.7648 9.26367 60.9646 10.5497 60.9646 12.5963C60.9646 14.6485 59.7711 15.9289 57.8789 15.9289C55.9873 15.9289 54.7939 14.6485 54.7939 12.5963ZM59.6041 12.5963C59.6041 11.1924 58.9608 10.3638 57.8789 10.3638C56.797 10.3638 56.1544 11.1987 56.1544 12.5963C56.1544 14.0058 56.797 14.8281 57.8789 14.8281C58.9608 14.8281 59.6041 14.0058 59.6041 12.5963H59.6041Z" fill="white"/>
<path id="Vector_7" d="M62.0654 9.34373H63.3388V10.4509H63.3697C63.4559 10.1051 63.6585 9.7995 63.9434 9.58549C64.2283 9.37147 64.5782 9.26207 64.9343 9.27567C65.0882 9.27513 65.2416 9.29184 65.3918 9.32548V10.5743C65.1975 10.515 64.9949 10.4877 64.7919 10.4937C64.5979 10.4858 64.4045 10.52 64.225 10.5939C64.0455 10.6678 63.8842 10.7797 63.752 10.9219C63.6198 11.0641 63.52 11.2331 63.4593 11.4175C63.3987 11.602 63.3786 11.7973 63.4006 11.9902V15.8483H62.0654L62.0654 9.34373Z" fill="white"/>
<path id="Vector_8" d="M71.5477 13.9378C71.3681 15.1186 70.2181 15.9289 68.7469 15.9289C66.8547 15.9289 65.6802 14.6611 65.6802 12.6272C65.6802 10.5869 66.861 9.26367 68.6908 9.26367C70.4904 9.26367 71.6221 10.4999 71.6221 12.4721V12.9296H67.028V13.0102C67.0068 13.2496 67.0367 13.4908 67.1159 13.7177C67.195 13.9446 67.3216 14.1521 67.4871 14.3263C67.6526 14.5006 67.8532 14.6376 68.0758 14.7284C68.2983 14.8191 68.5376 14.8615 68.7778 14.8526C69.0933 14.8822 69.4099 14.8091 69.6805 14.6443C69.9512 14.4795 70.1614 14.2317 70.2799 13.9378L71.5477 13.9378ZM67.0343 11.9964H70.2862C70.2982 11.7812 70.2656 11.5658 70.1904 11.3637C70.1152 11.1617 69.999 10.9774 69.8492 10.8224C69.6994 10.6674 69.5191 10.545 69.3198 10.4629C69.1204 10.3809 68.9063 10.3409 68.6908 10.3455C68.4733 10.3442 68.2578 10.386 68.0566 10.4685C67.8554 10.5509 67.6725 10.6724 67.5185 10.8258C67.3645 10.9793 67.2425 11.1618 67.1593 11.3627C67.0762 11.5636 67.0337 11.779 67.0343 11.9964V11.9964Z" fill="white"/>
</g>
<g id="Group_3">
<path id="Vector_9" d="M20.1371 0.211163C20.417 0.191076 20.6979 0.233364 20.9595 0.334975C21.221 0.436587 21.4568 0.594989 21.6498 0.798757C21.8428 1.00253 21.9881 1.24658 22.0753 1.51332C22.1625 1.78005 22.1895 2.06282 22.1542 2.34123C22.1542 3.71076 21.414 4.49799 20.1371 4.49799H18.5886V0.211163H20.1371ZM19.2544 3.89174H20.0627C20.2627 3.9037 20.4629 3.87091 20.6486 3.79575C20.8344 3.72059 21.001 3.60495 21.1364 3.45727C21.2719 3.30958 21.3726 3.13356 21.4315 2.94201C21.4903 2.75046 21.5056 2.5482 21.4764 2.34997C21.5035 2.15251 21.4866 1.95151 21.4269 1.76137C21.3672 1.57122 21.2661 1.39664 21.131 1.25013C20.9959 1.10362 20.8301 0.988802 20.6454 0.913914C20.4607 0.839026 20.2617 0.805918 20.0627 0.816961H19.2544V3.89174Z" fill="white"/>
<path id="Vector_10" d="M22.9064 2.87912C22.886 2.66651 22.9104 2.45201 22.9778 2.24936C23.0452 2.04671 23.1542 1.86039 23.2979 1.70234C23.4415 1.5443 23.6166 1.41802 23.8119 1.33161C24.0072 1.2452 24.2185 1.20056 24.432 1.20056C24.6456 1.20056 24.8568 1.2452 25.0521 1.33161C25.2474 1.41802 25.4225 1.5443 25.5662 1.70234C25.7098 1.86039 25.8188 2.04671 25.8863 2.24936C25.9537 2.45201 25.978 2.66651 25.9577 2.87912C25.9784 3.09193 25.9544 3.30673 25.8871 3.50971C25.8199 3.71269 25.7109 3.89935 25.5672 4.05771C25.4235 4.21607 25.2483 4.34261 25.0528 4.4292C24.8573 4.5158 24.6459 4.56054 24.432 4.56054C24.2182 4.56054 24.0067 4.5158 23.8112 4.4292C23.6157 4.34261 23.4405 4.21607 23.2968 4.05771C23.1531 3.89935 23.0442 3.71269 22.9769 3.50971C22.9097 3.30673 22.8857 3.09193 22.9064 2.87912ZM25.301 2.87912C25.301 2.17786 24.9859 1.76778 24.4331 1.76778C23.8781 1.76778 23.5659 2.17787 23.5659 2.87912C23.5659 3.58599 23.8781 3.99292 24.4331 3.99292C24.9859 3.99291 25.301 3.58317 25.301 2.87912H25.301Z" fill="white"/>
<path id="Vector_11" d="M30.0135 4.49804H29.3512L28.6825 2.11539H28.632L27.9662 4.49804H27.3102L26.4185 1.26294H27.066L27.6456 3.73151H27.6933L28.3584 1.26294H28.9709L29.636 3.73151H29.6865L30.2632 1.26294H30.9017L30.0135 4.49804Z" fill="white"/>
<path id="Vector_12" d="M31.6516 1.26302H32.2662V1.77694H32.3139C32.3949 1.59236 32.5314 1.43763 32.7044 1.33431C32.8775 1.231 33.0785 1.18424 33.2793 1.20057C33.4367 1.18874 33.5948 1.21247 33.7418 1.27002C33.8888 1.32756 34.0209 1.41744 34.1285 1.533C34.236 1.64855 34.3162 1.78683 34.363 1.93757C34.4099 2.08831 34.4222 2.24767 34.3991 2.40382V4.49808H33.7606V2.56415C33.7606 2.04426 33.5347 1.78572 33.0625 1.78572C32.9557 1.78074 32.849 1.79893 32.7498 1.83904C32.6506 1.87915 32.5613 1.94023 32.4879 2.0181C32.4145 2.09597 32.3589 2.18878 32.3247 2.29017C32.2906 2.39157 32.2787 2.49915 32.2901 2.60554V4.49812H31.6516L31.6516 1.26302Z" fill="white"/>
<path id="Vector_13" d="M35.4165 0H36.055V4.49798H35.4165V0Z" fill="white"/>
<path id="Vector_14" d="M36.9425 2.87893C36.9222 2.66632 36.9465 2.4518 37.014 2.24914C37.0814 2.04648 37.1904 1.86016 37.3341 1.70211C37.4778 1.54406 37.6529 1.41778 37.8482 1.33137C38.0435 1.24495 38.2547 1.20032 38.4683 1.20032C38.6819 1.20032 38.8931 1.24495 39.0885 1.33137C39.2838 1.41778 39.4589 1.54406 39.6025 1.70211C39.7462 1.86016 39.8552 2.04648 39.9227 2.24914C39.9901 2.4518 40.0145 2.66632 39.9941 2.87893C40.0148 3.09176 39.9908 3.30656 39.9235 3.50954C39.8563 3.71252 39.7473 3.89918 39.6036 4.05753C39.4599 4.21588 39.2846 4.34241 39.0891 4.42901C38.8936 4.5156 38.6821 4.56033 38.4683 4.56033C38.2545 4.56033 38.043 4.5156 37.8475 4.42901C37.652 4.34241 37.4768 4.21588 37.3331 4.05753C37.1894 3.89918 37.0804 3.71252 37.0131 3.50954C36.9459 3.30656 36.9218 3.09176 36.9425 2.87893ZM39.3371 2.87893C39.3371 2.17768 39.022 1.76759 38.4692 1.76759C37.9142 1.76759 37.602 2.17768 37.602 2.87894C37.602 3.58581 37.9142 3.99273 38.4692 3.99273C39.0221 3.99273 39.3371 3.58299 39.3371 2.87893H39.3371Z" fill="white"/>
<path id="Vector_15" d="M40.6663 3.5832C40.6663 3.00087 41.0999 2.66516 41.8695 2.61745L42.7458 2.56693V2.2877C42.7458 1.94601 42.5199 1.75307 42.0835 1.75307C41.7271 1.75307 41.4801 1.88392 41.4093 2.11265H40.7911C40.8564 1.55697 41.3791 1.20056 42.113 1.20056C42.924 1.20056 43.3815 1.60433 43.3815 2.2877V4.4981H42.7669V4.04346H42.7163C42.6138 4.20654 42.4698 4.33949 42.2991 4.42873C42.1284 4.51797 41.9371 4.5603 41.7446 4.5514C41.6088 4.56553 41.4716 4.55104 41.3417 4.50887C41.2118 4.46669 41.0922 4.39778 40.9906 4.30656C40.889 4.21534 40.8077 4.10384 40.7518 3.97925C40.6959 3.85466 40.6668 3.71975 40.6663 3.5832ZM42.7458 3.30677V3.0363L41.9558 3.08682C41.5103 3.11663 41.3082 3.26818 41.3082 3.55338C41.3082 3.84455 41.5608 4.01398 41.9081 4.01398C42.0099 4.02428 42.1127 4.01401 42.2104 3.98377C42.3081 3.95353 42.3987 3.90394 42.4769 3.83796C42.555 3.77198 42.6191 3.69095 42.6653 3.59969C42.7115 3.50844 42.7389 3.40882 42.7458 3.30677Z" fill="white"/>
<path id="Vector_16" d="M44.2205 2.87904C44.2205 1.85681 44.746 1.20922 45.5633 1.20922C45.7655 1.19991 45.9662 1.24833 46.1418 1.34884C46.3175 1.44935 46.461 1.59778 46.5554 1.77679H46.6031V0H47.2416V4.49798H46.6298V3.98686H46.5793C46.4775 4.16467 46.3291 4.31126 46.15 4.41075C45.9709 4.51024 45.7681 4.55884 45.5633 4.5513C44.7404 4.55133 44.2205 3.90374 44.2205 2.87904ZM44.88 2.87904C44.88 3.56521 45.2034 3.97811 45.7444 3.97811C46.2825 3.97811 46.6151 3.55926 46.6151 2.88185C46.6151 2.20761 46.279 1.78279 45.7444 1.78279C45.2069 1.78279 44.88 2.19848 44.88 2.87904H44.88Z" fill="white"/>
<path id="Vector_17" d="M49.8834 2.87912C49.8631 2.66651 49.8874 2.45201 49.9548 2.24936C50.0223 2.04671 50.1313 1.86039 50.2749 1.70234C50.4186 1.5443 50.5937 1.41802 50.789 1.33161C50.9843 1.2452 51.1955 1.20056 51.4091 1.20056C51.6226 1.20056 51.8339 1.2452 52.0292 1.33161C52.2245 1.41802 52.3996 1.5443 52.5432 1.70234C52.6869 1.86039 52.7959 2.04671 52.8633 2.24936C52.9307 2.45201 52.9551 2.66651 52.9347 2.87912C52.9554 3.09193 52.9314 3.30673 52.8642 3.50971C52.7969 3.71269 52.688 3.89935 52.5443 4.05771C52.4006 4.21607 52.2254 4.34261 52.0299 4.4292C51.8344 4.5158 51.6229 4.56054 51.4091 4.56054C51.1953 4.56054 50.9838 4.5158 50.7883 4.4292C50.5928 4.34261 50.4176 4.21607 50.2739 4.05771C50.1302 3.89935 50.0212 3.71269 49.954 3.50971C49.8867 3.30673 49.8627 3.09193 49.8834 2.87912ZM52.278 2.87912C52.278 2.17786 51.963 1.76778 51.4101 1.76778C50.8552 1.76778 50.543 2.17787 50.543 2.87912C50.543 3.58599 50.8552 3.99292 51.4101 3.99292C51.963 3.99291 52.278 3.58317 52.278 2.87912Z" fill="white"/>
<path id="Vector_18" d="M53.7913 1.26302H54.4059V1.77694H54.4536C54.5345 1.59236 54.671 1.43763 54.8441 1.33431C55.0171 1.231 55.2181 1.18424 55.419 1.20057C55.5764 1.18874 55.7345 1.21247 55.8814 1.27002C56.0284 1.32756 56.1606 1.41744 56.2681 1.533C56.3757 1.64855 56.4558 1.78683 56.5027 1.93757C56.5495 2.08831 56.5618 2.24767 56.5387 2.40382V4.49808H55.9003V2.56415C55.9003 2.04426 55.6744 1.78572 55.2022 1.78572C55.0953 1.78074 54.9886 1.79893 54.8894 1.83904C54.7903 1.87915 54.7009 1.94023 54.6275 2.0181C54.5542 2.09597 54.4985 2.18878 54.4644 2.29017C54.4302 2.39157 54.4184 2.49915 54.4297 2.60554V4.49812H53.7913V1.26302Z" fill="white"/>
<path id="Vector_19" d="M60.1461 0.457275V1.27745H60.8471V1.81523H60.1461V3.47874C60.1461 3.81761 60.2858 3.966 60.6036 3.966C60.685 3.96574 60.7662 3.96082 60.8471 3.95126V4.48308C60.7324 4.50359 60.6162 4.5145 60.4998 4.5157C59.7897 4.5157 59.507 4.26593 59.507 3.6422V1.8152H58.9934V1.27742H59.507V0.457275H60.1461Z" fill="white"/>
<path id="Vector_20" d="M61.7195 0H62.3523V1.78278H62.4028C62.4877 1.59647 62.628 1.44086 62.8045 1.33716C62.981 1.23345 63.1852 1.18669 63.3893 1.20325C63.5459 1.19473 63.7024 1.22088 63.8477 1.27982C63.993 1.33876 64.1236 1.42905 64.23 1.54424C64.3364 1.65944 64.4161 1.7967 64.4634 1.94623C64.5106 2.09576 64.5243 2.25388 64.5034 2.40931V4.49799H63.8643V2.56682C63.8643 2.05008 63.6236 1.78838 63.1725 1.78838C63.0628 1.77938 62.9524 1.79447 62.8491 1.83258C62.7458 1.8707 62.6521 1.93093 62.5745 2.00905C62.4969 2.08717 62.4374 2.1813 62.4 2.28486C62.3625 2.38841 62.3482 2.49889 62.358 2.60856V4.49797H61.7195L61.7195 0Z" fill="white"/>
<path id="Vector_21" d="M68.2259 3.62441C68.1392 3.92008 67.9512 4.17583 67.695 4.34693C67.4387 4.51803 67.1305 4.59357 66.8241 4.56035C66.611 4.56597 66.3992 4.52515 66.2034 4.44071C66.0076 4.35628 65.8326 4.23025 65.6904 4.07137C65.5482 3.9125 65.4423 3.72458 65.38 3.52067C65.3177 3.31676 65.3006 3.10174 65.3297 2.89054C65.3013 2.67868 65.3188 2.46319 65.3809 2.25867C65.4431 2.05415 65.5484 1.86537 65.6899 1.7051C65.8313 1.54484 66.0055 1.41683 66.2007 1.32975C66.3959 1.24267 66.6076 1.19855 66.8213 1.20037C67.7215 1.20037 68.2645 1.81536 68.2645 2.83124V3.05402H65.9801V3.0898C65.9701 3.20852 65.985 3.32801 66.0239 3.44063C66.0628 3.55325 66.1248 3.65649 66.2059 3.74375C66.287 3.83101 66.3855 3.90036 66.495 3.94734C66.6044 3.99432 66.7225 4.01791 66.8417 4.01659C66.9944 4.03492 67.1491 4.00742 67.2862 3.93758C67.4232 3.86775 67.5364 3.75873 67.6113 3.62439L68.2259 3.62441ZM65.9801 2.58183H67.6141C67.6222 2.47325 67.6074 2.36419 67.5708 2.26166C67.5342 2.15912 67.4765 2.06538 67.4015 1.98645C67.3265 1.90753 67.2359 1.84516 67.1353 1.80337C67.0348 1.76157 66.9266 1.74127 66.8178 1.74377C66.7074 1.74238 66.5978 1.76311 66.4955 1.80474C66.3932 1.84637 66.3003 1.90806 66.2222 1.98616C66.1442 2.06426 66.0825 2.15721 66.0409 2.25951C65.9993 2.36181 65.9787 2.47141 65.9801 2.58183H65.9801Z" fill="white"/>
</g>
</g>
</svg>
