<svg width="77" height="19" viewBox="0 0 77 19" fill="none" xmlns="http://www.w3.org/2000/svg">
<g id="Assets">
<g id="Group">
<path id="Vector" d="M24.7732 3.23432C24.7852 3.47706 24.7477 3.7197 24.663 3.94748C24.5782 4.17526 24.448 4.38341 24.2802 4.55925C24.0922 4.75424 23.8652 4.90734 23.6139 5.00853C23.3627 5.10972 23.0929 5.15673 22.8222 5.14647C22.5498 5.14891 22.2797 5.09687 22.0277 4.99342C21.7757 4.88996 21.5469 4.73718 21.3548 4.54404C21.1627 4.35091 21.0111 4.12132 20.909 3.86878C20.8069 3.61623 20.7563 3.34582 20.7602 3.07344C20.7564 2.80105 20.807 2.53064 20.9091 2.27809C21.0112 2.02554 21.1627 1.79594 21.3548 1.60279C21.5469 1.40963 21.7757 1.25681 22.0277 1.15331C22.2797 1.04981 22.5498 0.997712 22.8222 1.00008C23.1023 0.999231 23.3795 1.05585 23.6368 1.16645C23.8758 1.26332 24.0885 1.41527 24.2577 1.60992L23.9088 1.95906C23.7758 1.80259 23.6087 1.67874 23.4203 1.59709C23.2319 1.51544 23.0273 1.47816 22.8222 1.48814C22.6158 1.48707 22.4112 1.52768 22.2208 1.60753C22.0305 1.68738 21.8582 1.80483 21.7142 1.95285C21.5703 2.10087 21.4578 2.27641 21.3833 2.46896C21.3089 2.66151 21.274 2.86711 21.2809 3.07344C21.276 3.38249 21.3629 3.68605 21.5308 3.94561C21.6986 4.20518 21.9397 4.40906 22.2236 4.5314C22.5074 4.65375 22.8212 4.68905 23.1251 4.63283C23.4291 4.5766 23.7095 4.43139 23.9308 4.2156C24.1344 3.99613 24.2525 3.71081 24.2634 3.4116H22.8222V2.93485H24.7454C24.7636 3.03365 24.7729 3.13387 24.7732 3.23432Z" fill="white" stroke="white" stroke-width="0.175" stroke-miterlimit="10"/>
<path id="Vector_2" d="M27.8221 1.5766H26.0146V2.83498H27.6445V3.3118H26.0146V4.57018H27.8221V5.05791H25.5049V1.08887H27.8221V1.5766Z" fill="white" stroke="white" stroke-width="0.175" stroke-miterlimit="10"/>
<path id="Vector_3" d="M29.9729 5.05791H29.4626V1.5766H28.354V1.08887H31.0815V1.5766H29.9729V5.05791Z" fill="white" stroke="white" stroke-width="0.175" stroke-miterlimit="10"/>
<path id="Vector_4" d="M33.0549 5.05791V1.08887H33.5646V5.05791H33.0549Z" fill="white" stroke="white" stroke-width="0.175" stroke-miterlimit="10"/>
<path id="Vector_5" d="M35.8269 5.05791H35.3165V1.5766H34.208V1.08887H36.9354V1.5766H35.8269V5.05791Z" fill="white" stroke="white" stroke-width="0.175" stroke-miterlimit="10"/>
<path id="Vector_6" d="M42.0987 4.54495C41.7123 4.93011 41.1891 5.1464 40.6435 5.1464C40.098 5.1464 39.5748 4.93011 39.1884 4.54495C38.9973 4.35138 38.8471 4.12135 38.7466 3.86854C38.6462 3.61574 38.5976 3.34532 38.6038 3.07336C38.5976 2.80141 38.6462 2.53099 38.7466 2.27818C38.8471 2.02538 38.9973 1.79535 39.1884 1.60177C39.3794 1.41077 39.6061 1.25931 39.8557 1.15605C40.1052 1.05279 40.3727 0.999761 40.6428 1C40.9129 1.00024 41.1803 1.05374 41.4296 1.15745C41.679 1.26115 41.9055 1.41302 42.0961 1.60435C42.2873 1.79742 42.4379 2.02693 42.5387 2.27928C42.6396 2.53162 42.6888 2.80166 42.6833 3.07336C42.6893 3.3453 42.6407 3.61567 42.5402 3.86845C42.4398 4.12123 42.2896 4.35128 42.0987 4.54495ZM39.565 4.21261C39.8511 4.49825 40.2389 4.65867 40.6432 4.65867C41.0475 4.65867 41.4353 4.49825 41.7214 4.21261C41.8681 4.06239 41.9829 3.88399 42.0587 3.68818C42.1346 3.49237 42.1699 3.28322 42.1626 3.07336C42.1699 2.86351 42.1346 2.65435 42.0587 2.45854C41.9829 2.26273 41.8681 2.08433 41.7214 1.93411C41.4353 1.64848 41.0475 1.48805 40.6432 1.48805C40.2389 1.48805 39.8511 1.64848 39.565 1.93411C39.4185 2.08445 39.3039 2.26289 39.2282 2.45868C39.1525 2.65447 39.1172 2.86357 39.1245 3.07336C39.1172 3.28316 39.1525 3.49225 39.2282 3.68805C39.3039 3.88384 39.4185 4.06228 39.565 4.21261Z" fill="white" stroke="white" stroke-width="0.175" stroke-miterlimit="10"/>
<path id="Vector_7" d="M43.3989 5.05791V1.08887H44.0198L45.9487 4.17645H45.9707L45.9487 3.41155V1.08887H46.4591V5.05791H45.9267L43.9086 1.82076H43.8867L43.9086 2.58566V5.05791H43.3989Z" fill="white" stroke="white" stroke-width="0.175" stroke-miterlimit="10"/>
</g>
<g id="Group_2">
<path id="Vector_8" d="M38.4778 10.8473C37.9218 10.8494 37.3789 11.0162 36.9176 11.3266C36.4563 11.6371 36.0974 12.0772 35.8861 12.5915C35.6748 13.1058 35.6206 13.6712 35.7303 14.2162C35.8401 14.7613 36.1089 15.2616 36.5028 15.654C36.8967 16.0464 37.3981 16.3133 37.9435 16.421C38.489 16.5287 39.0542 16.4724 39.5676 16.2591C40.0811 16.0458 40.5199 15.6852 40.8286 15.2228C41.1373 14.7603 41.302 14.2168 41.302 13.6608C41.3074 13.2889 41.2381 12.9197 41.0979 12.5752C40.9578 12.2307 40.7498 11.9178 40.4863 11.6554C40.2228 11.3929 39.9092 11.1861 39.5642 11.0472C39.2191 10.9084 38.8497 10.8404 38.4778 10.8473ZM38.4778 15.3659C38.1354 15.3903 37.7936 15.3111 37.4968 15.1385C37.2001 14.9659 36.9622 14.708 36.8141 14.3983C36.666 14.0886 36.6145 13.7415 36.6664 13.4022C36.7184 13.0629 36.8713 12.747 37.1052 12.4958C37.3391 12.2446 37.6433 12.0696 37.9781 11.9937C38.3129 11.9177 38.6627 11.9444 38.9822 12.0701C39.3016 12.1958 39.5758 12.4147 39.7691 12.6984C39.9623 12.9822 40.0657 13.3175 40.0657 13.6608C40.0761 13.8776 40.043 14.0944 39.9683 14.2983C39.8937 14.5022 39.779 14.689 39.6311 14.8479C39.4831 15.0068 39.3048 15.1345 39.1068 15.2235C38.9087 15.3124 38.6949 15.3609 38.4778 15.3659ZM32.3169 10.8473C31.7609 10.8494 31.218 11.0162 30.7567 11.3266C30.2954 11.637 29.9365 12.0772 29.7251 12.5915C29.5138 13.1058 29.4596 13.6711 29.5694 14.2162C29.6791 14.7613 29.9479 15.2616 30.3418 15.654C30.7357 16.0464 31.2371 16.3133 31.7826 16.421C32.328 16.5287 32.8932 16.4724 33.4067 16.2591C33.9202 16.0459 34.3589 15.6852 34.6676 15.2228C34.9763 14.7603 35.141 14.2168 35.141 13.6608C35.1465 13.2889 35.0771 12.9197 34.937 12.5752C34.7969 12.2307 34.5889 11.9179 34.3254 11.6554C34.0619 11.3929 33.7483 11.1861 33.4033 11.0473C33.0582 10.9084 32.6888 10.8404 32.3169 10.8473ZM32.3169 15.3659C31.9745 15.3903 31.6327 15.3111 31.3359 15.1385C31.0392 14.9659 30.8013 14.708 30.6532 14.3983C30.5051 14.0886 30.4536 13.7415 30.5056 13.4022C30.5575 13.0629 30.7104 12.747 30.9443 12.4958C31.1783 12.2446 31.4824 12.0696 31.8172 11.9937C32.152 11.9177 32.5019 11.9444 32.8213 12.0701C33.1407 12.1958 33.4149 12.4147 33.6082 12.6984C33.8014 12.9822 33.9048 13.3175 33.9048 13.6608C33.9152 13.8776 33.8821 14.0944 33.8075 14.2983C33.7328 14.5022 33.6181 14.6891 33.4702 14.8479C33.3222 15.0068 33.144 15.1345 32.9459 15.2235C32.7478 15.3124 32.534 15.3609 32.3169 15.3659ZM24.9882 11.7106V12.9041H27.8444C27.8032 13.464 27.5741 13.9935 27.1943 14.4068C26.9081 14.6986 26.5639 14.9271 26.1839 15.0776C25.8039 15.2281 25.3966 15.2973 24.9882 15.2807C24.1534 15.2694 23.3566 14.9298 22.7702 14.3354C22.1838 13.7411 21.8551 12.9397 21.8551 12.1048C21.8551 11.2699 22.1838 10.4686 22.7702 9.87423C23.3566 9.27987 24.1534 8.9403 24.9882 8.929C25.7901 8.91852 26.5637 9.22489 27.141 9.78155L27.9829 8.93965C27.589 8.5497 27.1213 8.24231 26.607 8.03552C26.0928 7.82872 25.5424 7.72668 24.9882 7.73538C24.4091 7.72694 23.834 7.83373 23.2965 8.04954C22.759 8.26534 22.2697 8.58584 21.8572 8.99242C21.4446 9.399 21.117 9.88353 20.8934 10.4179C20.6698 10.9522 20.5547 11.5256 20.5547 12.1048C20.5547 12.684 20.6698 13.2575 20.8934 13.7918C21.117 14.3261 21.4446 14.8107 21.8572 15.2172C22.2697 15.6238 22.759 15.9443 23.2965 16.1601C23.834 16.3759 24.4091 16.4827 24.9882 16.4743C25.5541 16.4978 26.1185 16.4006 26.644 16.1893C27.1695 15.978 27.6441 15.6574 28.0362 15.2487C28.7324 14.4888 29.1034 13.4866 29.07 12.4566C29.0727 12.2064 29.0513 11.9566 29.006 11.7106H24.9882ZM54.96 12.6377C54.7909 12.1281 54.4691 11.6829 54.0381 11.3626C53.6072 11.0422 53.0882 10.8623 52.5514 10.8473C52.19 10.8495 51.8327 10.9251 51.5012 11.0693C51.1697 11.2135 50.8709 11.4235 50.6229 11.6865C50.3749 11.9495 50.1827 12.26 50.0581 12.5993C49.9335 12.9387 49.879 13.2998 49.8979 13.6608C49.8897 14.0307 49.9562 14.3984 50.0934 14.742C50.2306 15.0857 50.4356 15.3981 50.6962 15.6607C50.9568 15.9234 51.2677 16.1308 51.6103 16.2705C51.9528 16.4103 52.3201 16.4796 52.69 16.4743C53.1535 16.4769 53.6104 16.3643 54.0196 16.1466C54.4288 15.929 54.7776 15.6131 55.0345 15.2274L54.0754 14.588C53.9317 14.8266 53.7285 15.0238 53.4856 15.1602C53.2427 15.2966 52.9686 15.3675 52.69 15.3659C52.4034 15.3769 52.1201 15.3015 51.8768 15.1495C51.6336 14.9974 51.4416 14.7758 51.3259 14.5134L55.0879 12.9574L54.96 12.6377ZM51.1234 13.5756C51.1102 13.3708 51.1379 13.1654 51.205 12.9715C51.2721 12.7776 51.3772 12.599 51.5141 12.4461C51.651 12.2933 51.8171 12.1693 52.0025 12.0815C52.188 11.9936 52.3891 11.9436 52.5941 11.9344C52.8075 11.9203 53.0204 11.9694 53.2061 12.0756C53.3918 12.1817 53.5422 12.3401 53.6385 12.5312L51.1234 13.5756ZM48.0648 16.3037H49.301V8.03385H48.0648V16.3037ZM46.0399 11.4761H45.9973C45.8094 11.2719 45.58 11.1101 45.3245 11.0017C45.069 10.8933 44.7934 10.8406 44.5159 10.8473C43.7904 10.8782 43.1049 11.1881 42.6025 11.7123C42.1001 12.2366 41.8196 12.9347 41.8196 13.6608C41.8196 14.3869 42.1001 15.085 42.6025 15.6092C43.1049 16.1335 43.7904 16.4434 44.5159 16.4743C44.7945 16.4817 45.0713 16.4283 45.3271 16.3179C45.5829 16.2075 45.8116 16.0427 45.9973 15.8349H46.0399V16.2398C46.0399 17.3163 45.4645 17.8917 44.5372 17.8917C44.2282 17.8843 43.9284 17.7851 43.676 17.6067C43.4236 17.4283 43.23 17.1787 43.1199 16.8899L42.0435 17.3376C42.2463 17.8315 42.5921 18.2536 43.0364 18.5498C43.4806 18.846 44.0033 19.0028 44.5372 19.0001C45.9866 19.0001 47.2122 18.1475 47.2122 16.0693V11.0178H46.0399V11.4761ZM44.6226 15.3659C44.1953 15.3297 43.7971 15.1344 43.507 14.8186C43.2169 14.5028 43.0559 14.0896 43.0559 13.6608C43.0559 13.232 43.2169 12.8188 43.507 12.503C43.7971 12.1872 44.1953 11.9919 44.6226 11.9557C44.8351 11.966 45.0434 12.0191 45.2351 12.1117C45.4267 12.2043 45.5977 12.3346 45.738 12.4947C45.8782 12.6548 45.9847 12.8415 46.0512 13.0437C46.1178 13.2458 46.1429 13.4593 46.1252 13.6714C46.1418 13.8822 46.1157 14.0942 46.0485 14.2946C45.9814 14.4951 45.8744 14.68 45.7341 14.8382C45.5939 14.9963 45.4231 15.1246 45.2321 15.2153C45.0411 15.306 44.8338 15.3572 44.6226 15.3659ZM60.7508 8.03398H57.793V16.3037H59.0272V13.1706H60.7508C61.0999 13.1897 61.4492 13.1375 61.7775 13.0171C62.1057 12.8966 62.406 12.7106 62.6599 12.4702C62.9138 12.2298 63.116 11.9402 63.2542 11.619C63.3924 11.2979 63.4637 10.9519 63.4637 10.6023C63.4637 10.2526 63.3924 9.90668 63.2542 9.58552C63.116 9.26436 62.9138 8.97474 62.6599 8.73437C62.406 8.494 62.1057 8.30793 61.7775 8.1875C61.4492 8.06708 61.0999 8.01484 60.7508 8.03398ZM60.7826 12.0197H59.0272V9.18494H60.7826C60.9713 9.18103 61.1587 9.2148 61.3341 9.28428C61.5095 9.35375 61.6693 9.45753 61.804 9.58953C61.9388 9.72153 62.0459 9.87911 62.119 10.053C62.1921 10.2269 62.2297 10.4137 62.2297 10.6023C62.2297 10.791 62.1921 10.9777 62.119 11.1516C62.0459 11.3255 61.9388 11.4831 61.804 11.6151C61.6693 11.7471 61.5095 11.8509 61.3341 11.9204C61.1587 11.9898 60.9713 12.0236 60.7826 12.0197ZM68.411 10.8321C67.9605 10.8058 67.5121 10.9116 67.1209 11.1365C66.7296 11.3614 66.4126 11.6956 66.2086 12.0981L67.3045 12.5556C67.4131 12.3559 67.5776 12.1921 67.7779 12.0844C67.9782 11.9766 68.2056 11.9297 68.4322 11.9492C68.7453 11.9186 69.0578 12.0134 69.3011 12.2129C69.5444 12.4123 69.6987 12.7001 69.7302 13.0131V13.0982C69.3338 12.8876 68.8917 12.778 68.4428 12.779C67.2619 12.779 66.0597 13.428 66.0597 14.6409C66.0712 14.8965 66.1339 15.1472 66.2441 15.3781C66.3543 15.6091 66.5098 15.8155 66.7013 15.9852C66.8928 16.1549 67.1164 16.2843 67.3589 16.3659C67.6015 16.4475 67.8579 16.4796 68.113 16.4602C68.4238 16.4785 68.7338 16.4131 69.0107 16.2709C69.2877 16.1287 69.5214 15.9149 69.6877 15.6516H69.7302V16.29H70.9218V13.1195C70.9218 11.6513 69.8259 10.8321 68.411 10.8321ZM68.262 15.3643C67.8577 15.3643 67.2938 15.1623 67.2938 14.6622C67.2938 14.0239 67.996 13.7791 68.6025 13.7791C68.9964 13.7686 69.3859 13.8642 69.7302 14.0557C69.6849 14.4144 69.5112 14.7446 69.2413 14.9852C68.9714 15.2257 68.6235 15.3604 68.262 15.3643ZM75.2626 11.0129L73.8476 14.5983H73.805L72.3368 11.0129H71.0069L73.2092 16.024L71.9538 18.8115H73.2411L76.635 11.0129H75.2626ZM64.1446 16.3037H65.3787V8.03398H64.1446V16.3037Z" fill="white"/>
</g>
<g id="Group_3">
<path id="Vector_9" d="M0.30855 1.44475C0.0916323 1.70411 -0.0178961 2.0366 0.00240421 2.37411V17.0041C-0.0179551 17.3416 0.0915803 17.6741 0.30855 17.9334L0.357502 17.9811L8.55292 9.78577V9.59241L0.357502 1.39673L0.30855 1.44475Z" fill="url(#paint0_linear_210_517)"/>
<path id="Vector_10" d="M11.2844 12.5187L8.55273 9.78576V9.5924L11.285 6.86011L11.3466 6.89523L14.5832 8.73429C15.5078 9.25953 15.5078 10.119 14.5832 10.6445L11.3466 12.4836L11.2844 12.5187Z" fill="url(#paint1_linear_210_517)"/>
<path id="Vector_11" d="M11.3468 12.4834L8.55296 9.68921L0.308594 17.9335C0.49697 18.0997 0.737532 18.1947 0.988598 18.2021C1.23966 18.2095 1.48542 18.1289 1.68327 17.9741L11.3468 12.4834Z" fill="url(#paint2_linear_210_517)"/>
<path id="Vector_12" d="M11.3468 6.89498L1.68327 1.40421C1.48542 1.24948 1.23966 1.16883 0.988598 1.17625C0.737532 1.18367 0.49697 1.27868 0.308594 1.44482L8.55296 9.68919L11.3468 6.89498Z" fill="url(#paint3_linear_210_517)"/>
<path id="Vector_13" opacity="0.2" d="M11.2852 12.4219L1.68327 17.8775C1.49303 18.0223 1.26085 18.1014 1.02176 18.1026C0.782668 18.1039 0.549651 18.0274 0.357876 17.8846L0.308594 17.9339L0.357546 17.9816L0.357876 17.9812C0.549619 18.1241 0.782649 18.2007 1.02176 18.1994C1.26087 18.1981 1.49307 18.1191 1.68327 17.9742L11.3468 12.4834L11.2852 12.4219Z" fill="#3B3B3B"/>
<path id="Vector_14" opacity="0.12" d="M0.308535 17.8371C0.091638 17.5777 -0.0178876 17.2452 0.00238901 16.9077V17.0044C-0.0178998 17.3419 0.0916272 17.6743 0.308535 17.9337L0.357817 17.8844L0.308535 17.8371Z" fill="#3B3B3B"/>
<path id="Vector_15" opacity="0.12" d="M14.5834 10.5476L11.2852 12.4218L11.3467 12.4833L14.5834 10.6443C14.7738 10.5616 14.9385 10.4295 15.0605 10.2616C15.1824 10.0936 15.2571 9.89607 15.2768 9.68945C15.2359 9.87656 15.1519 10.0515 15.0315 10.2005C14.9112 10.3495 14.7577 10.4683 14.5834 10.5476Z" fill="#3B3B3B"/>
<path id="Vector_16" opacity="0.25" d="M1.68327 1.50121L14.5835 8.83071C14.7579 8.90999 14.9114 9.02888 15.0318 9.17791C15.1521 9.32695 15.2361 9.50203 15.2769 9.68921C15.2574 9.48252 15.1827 9.28485 15.0607 9.11685C14.9388 8.94884 14.7739 8.81665 14.5835 8.73406L1.68327 1.40456C0.758743 0.879257 0.00244141 1.31559 0.00244141 2.37453V2.47117C0.00244141 1.4123 0.758743 0.97597 1.68327 1.50121Z" fill="white"/>
</g>
</g>
<defs>
<linearGradient id="paint0_linear_210_517" x1="7.82614" y1="2.21985" x2="-3.27554" y2="13.3215" gradientUnits="userSpaceOnUse">
<stop stop-color="#00A0FF"/>
<stop offset="0.00657" stop-color="#00A1FF"/>
<stop offset="0.2601" stop-color="#00BEFF"/>
<stop offset="0.5122" stop-color="#00D2FF"/>
<stop offset="0.7604" stop-color="#00DFFF"/>
<stop offset="1" stop-color="#00E3FF"/>
</linearGradient>
<linearGradient id="paint1_linear_210_517" x1="15.787" y1="9.68941" x2="-0.219461" y2="9.68941" gradientUnits="userSpaceOnUse">
<stop stop-color="#FFE000"/>
<stop offset="0.4087" stop-color="#FFBD00"/>
<stop offset="0.7754" stop-color="#FFA500"/>
<stop offset="1" stop-color="#FF9C00"/>
</linearGradient>
<linearGradient id="paint2_linear_210_517" x1="9.82871" y1="11.2074" x2="-5.22606" y2="26.2622" gradientUnits="userSpaceOnUse">
<stop stop-color="#FF3A44"/>
<stop offset="1" stop-color="#C31162"/>
</linearGradient>
<linearGradient id="paint3_linear_210_517" x1="-1.76726" y1="-3.42508" x2="4.95532" y2="3.29751" gradientUnits="userSpaceOnUse">
<stop stop-color="#32A071"/>
<stop offset="0.0685" stop-color="#2DA771"/>
<stop offset="0.4762" stop-color="#15CF74"/>
<stop offset="0.8009" stop-color="#06E775"/>
<stop offset="1" stop-color="#00F076"/>
</linearGradient>
</defs>
</svg>
