<svg width="36" height="36" viewBox="0 0 36 36" fill="none" xmlns="http://www.w3.org/2000/svg">
<g id="nstagram">
<g id="Vector">
<path d="M17.9984 11.0655C16.1589 11.0655 14.3947 11.7963 13.0939 13.097C11.7932 14.3978 11.0624 16.162 11.0624 18.0015C11.0624 19.841 11.7932 21.6052 13.0939 22.906C14.3947 24.2068 16.1589 24.9375 17.9984 24.9375C19.838 24.9375 21.6022 24.2068 22.9029 22.906C24.2037 21.6052 24.9344 19.841 24.9344 18.0015C24.9344 16.162 24.2037 14.3978 22.9029 13.097C21.6022 11.7963 19.838 11.0655 17.9984 11.0655ZM17.9984 22.506C16.8034 22.506 15.6572 22.0313 14.8122 21.1862C13.9672 20.3412 13.4924 19.1951 13.4924 18C13.4924 16.8049 13.9672 15.6588 14.8122 14.8138C15.6572 13.9687 16.8034 13.494 17.9984 13.494C19.1935 13.494 20.3396 13.9687 21.1847 14.8138C22.0297 15.6588 22.5044 16.8049 22.5044 18C22.5044 19.1951 22.0297 20.3412 21.1847 21.1862C20.3396 22.0313 19.1935 22.506 17.9984 22.506Z" fill="#2D2D2D"/>
<path d="M25.2089 12.4275C26.102 12.4275 26.8259 11.7036 26.8259 10.8105C26.8259 9.91746 26.102 9.19351 25.2089 9.19351C24.3159 9.19351 23.5919 9.91746 23.5919 10.8105C23.5919 11.7036 24.3159 12.4275 25.2089 12.4275Z" fill="#2D2D2D"/>
<path d="M30.7994 9.16651C30.4522 8.26978 29.9215 7.45543 29.2414 6.7756C28.5613 6.09576 27.7468 5.56541 26.8499 5.21851C25.8004 4.82454 24.6917 4.61152 23.5709 4.58851C22.1264 4.52551 21.6689 4.50751 18.0059 4.50751C14.3429 4.50751 13.8734 4.50751 12.4409 4.58851C11.321 4.61034 10.2131 4.82341 9.16493 5.21851C8.26783 5.56501 7.45308 6.09521 6.77293 6.7751C6.09279 7.45499 5.56227 8.26954 5.21543 9.16651C4.82139 10.2159 4.60885 11.3248 4.58693 12.4455C4.52243 13.8885 4.50293 14.346 4.50293 18.0105C4.50293 21.6735 4.50293 22.14 4.58693 23.5755C4.60943 24.6975 4.82093 25.8045 5.21543 26.856C5.56325 27.7526 6.09427 28.5669 6.77458 29.2467C7.45489 29.9265 8.26953 30.4569 9.16643 30.804C10.2126 31.2138 11.321 31.4421 12.4439 31.479C13.8884 31.542 14.3459 31.5615 18.0089 31.5615C21.6719 31.5615 22.1414 31.5615 23.5739 31.479C24.6946 31.4562 25.8033 31.2437 26.8529 30.8505C27.7496 30.5028 28.5639 29.972 29.2439 29.292C29.9239 28.6119 30.4547 27.7976 30.8024 26.901C31.1969 25.851 31.4084 24.744 31.4309 23.622C31.4954 22.179 31.5149 21.7215 31.5149 18.057C31.5149 14.3925 31.5149 13.9275 31.4309 12.492C31.4135 11.3554 31.1998 10.2304 30.7994 9.16651ZM28.9724 23.4645C28.9628 24.329 28.805 25.1854 28.5059 25.9965C28.2807 26.5798 27.9358 27.1095 27.4935 27.5515C27.0513 27.9935 26.5214 28.3381 25.9379 28.563C25.1358 28.8607 24.2885 29.0185 23.4329 29.0295C22.0079 29.0955 21.6059 29.112 17.9519 29.112C14.2949 29.112 13.9214 29.112 12.4694 29.0295C11.6143 29.019 10.7674 28.8612 9.96593 28.563C9.38046 28.3395 8.84843 27.9955 8.40426 27.5534C7.9601 27.1113 7.61368 26.5809 7.38743 25.9965C7.0926 25.1941 6.9349 24.3478 6.92093 23.493C6.85643 22.068 6.84143 21.666 6.84143 18.012C6.84143 14.3565 6.84143 13.983 6.92093 12.5295C6.93063 11.6655 7.08841 10.8096 7.38743 9.99901C7.84493 8.81551 8.78243 7.88401 9.96593 7.43101C10.7678 7.13422 11.6145 6.97645 12.4694 6.96451C13.8959 6.90001 14.2964 6.88201 17.9519 6.88201C21.6074 6.88201 21.9824 6.88201 23.4329 6.96451C24.2885 6.9748 25.136 7.13261 25.9379 7.43101C26.5213 7.65642 27.0511 8.00131 27.4934 8.44355C27.9356 8.8858 28.2805 9.41562 28.5059 9.99901C28.8008 10.8014 28.9585 11.6477 28.9724 12.5025C29.0369 13.929 29.0534 14.3295 29.0534 17.985C29.0534 21.639 29.0534 22.032 28.9889 23.466H28.9724V23.4645Z" fill="#2D2D2D"/>
</g>
</g>
</svg>
